<?xml version="1.0" encoding="utf-8" ?>
<svg baseProfile="full" height="200mm" version="1.1" viewBox="0,0,200,200" width="200mm" xmlns="http://www.w3.org/2000/svg" xmlns:ev="http://www.w3.org/2001/xml-events" xmlns:xlink="http://www.w3.org/1999/xlink"><defs /><rect fill="#1a1a1a" height="200" width="200" x="0" y="0" /><text alignment-baseline="middle" fill="#e1ed5e" style="dominant-baseline: central; font-size:9.0px; font-family:Arial;" text-anchor="middle" x="100.0" y="100.0">2015</text><line stroke="#e1ed5e" stroke-width="0.3" x1="100.0" x2="100.0" y1="15.0" y2="10.0" /><path d="M 100.0 14.0 a86.0,86.0 0 0,1 42.46469731375804,11.215312516191453" fill="none" id="id1" stroke="none" /><text fill="#e1ed5e" style="font-size:6.75px; font-family:Arial;" text-anchor="middle"><textPath startOffset="22.20632615414155" xlink:href="#id1">January</textPath></text><line stroke="#e1ed5e" stroke-width="0.3" x1="143.23703022742887" x2="145.7803849466894" y1="26.81831364943548" y2="22.513508569990506" /><path d="M 143.74570117128098 25.957352633546492 a86.0,86.0 0 0,1 28.547481713284135,27.462654790039103" fill="none" id="id2" stroke="none" /><text fill="#e1ed5e" style="font-size:6.75px; font-family:Arial;" text-anchor="middle"><textPath startOffset="19.985693538727396" xlink:href="#id2">February</textPath></text><line stroke="#e1ed5e" stroke-width="0.3" x1="172.23445277983987" x2="176.4835382374775" y1="55.19839476539836" y2="52.563006222186495" /><path d="M 173.08426987136738 54.67131705675599 a86.0,86.0 0 0,1 12.851231095245387,41.99856678651699" fill="none" id="id3" stroke="none" /><text fill="#e1ed5e" style="font-size:6.75px; font-family:Arial;" text-anchor="middle"><textPath startOffset="22.20632615414155" xlink:href="#id3">March</textPath></text><line stroke="#e1ed5e" stroke-width="0.3" x1="184.98032266829074" x2="189.97916517819016" y1="98.17113171792111" y2="98.06355123074" /><path d="M 185.9800911702706 98.14961562048488 a86.0,86.0 0 0,1 -9.607161424134198,41.387399972396054" fill="none" id="id4" stroke="none" /><text fill="#e1ed5e" style="font-size:6.75px; font-family:Arial;" text-anchor="middle"><textPath startOffset="21.466115282336823" xlink:href="#id4">April</textPath></text><line stroke="#e1ed5e" stroke-width="0.3" x1="174.80103733775053" x2="179.2010983576182" y1="140.37084112569926" y2="142.7455964860345" /><path d="M 175.68104954172406 140.8457921977663 a86.0,86.0 0 0,1 -30.038265399797805,32.042727171017184" fill="none" id="id5" stroke="none" /><text fill="#e1ed5e" style="font-size:6.75px; font-family:Arial;" text-anchor="middle"><textPath startOffset="22.206326154141568" xlink:href="#id5">May</textPath></text><line stroke="#e1ed5e" stroke-width="0.3" x1="143.8653032363475" x2="146.44561519142675" y1="172.8068346515853" y2="177.08958963109032" /><path d="M 144.38136562736335 173.6633856474863 a86.0,86.0 0 0,1 -40.68145358897372,12.25698825130547" fill="none" id="id6" stroke="none" /><text fill="#e1ed5e" style="font-size:6.75px; font-family:Arial;" text-anchor="middle"><textPath startOffset="21.466115282336833" xlink:href="#id6">June</textPath></text><line stroke="#e1ed5e" stroke-width="0.3" x1="102.19456741930631" x2="102.32365962044197" y1="184.97166512339345" y2="189.96999836594603" /><path d="M 102.22038585953345 185.97133177190398 a86.0,86.0 0 0,1 -42.740103519485714,-10.115201625700543" fill="none" id="id7" stroke="none" /><text fill="#e1ed5e" style="font-size:6.75px; font-family:Arial;" text-anchor="middle"><textPath startOffset="22.20632615414155" xlink:href="#id7">July</textPath></text><line stroke="#e1ed5e" stroke-width="0.3" x1="58.666819895761336" x2="56.23545636021788" y1="174.27360380694188" y2="178.64263932499728" /><path d="M 58.180547188652646 175.14741091055294 a86.0,86.0 0 0,1 -31.652253787137756,-30.449443065178592" fill="none" id="id8" stroke="none" /><text fill="#e1ed5e" style="font-size:6.75px; font-family:Arial;" text-anchor="middle"><textPath startOffset="22.20632615414155" xlink:href="#id8">August</textPath></text><line stroke="#e1ed5e" stroke-width="0.3" x1="26.63291911575756" x2="22.317208475507996" y1="142.92168965132927" y2="145.44649492493687" /><path d="M 25.769776987707644 143.4266507060508 a86.0,86.0 0 0,1 -11.730757126820373,-40.83630448921669" fill="none" id="id9" stroke="none" /><text fill="#e1ed5e" style="font-size:6.75px; font-family:Arial;" text-anchor="middle"><textPath startOffset="21.46611528233685" xlink:href="#id9">September</textPath></text><path d="M 80.20201598880116 107.00284435728193 l -43.68997061183624 15.453798932045109 a67.34256610822487,67.34256610822487 0 0,0 -0.377147773435192,-1.096167968562135 l 43.94950921621466 -14.699458260393676" fill="#33ff50" stroke="none" /><path d="M 80.0844068197444 106.66101706037122 l -53.87359194245667 18.01869077080515 a77.80701651975951,77.80701651975951 0 0,0 -0.41388793669351615,-1.2738160889970735 l 54.175772130166436 -17.088675781830272" fill="#43ffe1" stroke="none" /><path d="M 79.97269907076064 106.31721596034903 l -38.3968636810424 12.111531200846622 a61.26174770883194,61.26174770883194 0 0,0 -0.30856441795611084,-1.0084063712983136 l 38.59965487150464 -11.44879785699626" fill="#61ff29" stroke="none" /><path d="M 79.58551787078972 104.9243191809786 l -42.936728852784064 10.357066915535862 a65.16821843441716,65.16821843441716 0 0,0 -0.25365777591158195,-1.0927510597863195 l 43.1086471946262 -9.61644719840097" fill="#30ff2f" stroke="none" /><path d="M 79.50377843672027 104.57218783832718 l -39.55880834235539 8.82456807188665 a61.53112778004787,61.53112778004787 0 0,0 -0.22170533008793283,-1.0357334926659572 l 39.704847711167766 -8.142320759804528" fill="#5eff2a" stroke="none" /><line stroke="#e1ed5e" stroke-width="0.3" x1="15.007084014347285" x2="10.007500721073583" y1="101.09737516637583" y2="101.16192664675087" /><path d="M 14.007167355692545 101.11028546245083 a86.0,86.0 0 0,1 10.666146001902534,-42.60595125391555" fill="none" id="id10" stroke="none" /><text fill="#e1ed5e" style="font-size:6.75px; font-family:Arial;" text-anchor="middle"><textPath startOffset="22.20632615414155" xlink:href="#id10">October</textPath></text><path d="M 79.05617556472873 98.46500227214037 l -32.08417609076718 -2.3514873108197016 a53.170232327359756,53.170232327359756 0 0,0 0.07475612166202666,-0.9122140345893712 l 32.03894548528566 2.9034152626168512" fill="#d2ff1c" stroke="none" /><path d="M 79.08570108090925 98.10471618934814 l -46.579211676773085 -4.221075071434994 a67.77008055571771,67.77008055571771 0 0,0 0.11528295572367343,-1.1608836315249316 l 46.49965159536718 5.0222342336643555" fill="#33ff56" stroke="none" /><path d="M 79.12142395522702 97.74499172005258 l -14.112325705822055 -1.5242136842905383 a35.19439904267118,35.19439904267118 0 0,0 0.07023737333948464,-0.6017509215316466 l 14.083997979478982 1.7669083441470466" fill="#ff0000" stroke="none" /><line stroke="#e1ed5e" stroke-width="0.3" x1="26.266209847984243" x2="21.928928074336255" y1="57.711370442889674" y2="55.22380399835377" /><path d="M 25.398753493254645 57.213857153982495 a86.0,86.0 0 0,1 29.58750427330803,-30.492523968695096" fill="none" id="id11" stroke="none" /><text fill="#e1ed5e" style="font-size:6.75px; font-family:Arial;" text-anchor="middle"><textPath startOffset="21.46611528233685" xlink:href="#id11">November</textPath></text><path d="M 81.96595687620814 89.24020034530311 l -14.865374055867425 -8.86925053551893 a38.31019788687175,38.31019788687175 0 0,0 0.3427562355939027,-0.5634011296323921 l 14.710502021987304 9.123819438358398" fill="#ff3905" stroke="none" /><path d="M 84.80347519578584 85.50635884689758 l -27.230396519979042 -25.970911159097337 a58.62954585254801,58.62954585254801 0 0,0 0.7028167568544265,-0.7243144472755574 l 26.779315499421497 26.43578980192302" fill="#84ff25" stroke="none" /><path d="M 85.05521093208273 85.24692304244772 l -28.764422470645933 -28.395431773606532 a61.418962699200286,61.418962699200286 0 0,0 0.7492066397330609,-0.7459893083249611 l 28.271380030745558 28.886356932581606" fill="#5fff29" stroke="none" /><path d="M 85.31137513191541 84.99185889309783 l -28.421215836927207 -29.03945206178779 a61.63317961590101,61.63317961590101 0 0,0 0.7645940971136751,-0.7355389156362384 l 27.917138496201105 29.524374064186343" fill="#5cff2a" stroke="none" /><path d="M 85.83668400450813 84.49514656593479 l -26.05488769546026 -28.52278485403594 a59.63167649290759,59.63167649290759 0 0,0 0.7638221794201782,-0.6857670943708039 l 25.56005452844411 28.967050957176024" fill="#77ff27" stroke="none" /><path d="M 86.65592168130627 83.78471172551755 l -9.828707035507414 -11.943523871777455 a36.467748526063865,36.467748526063865 0 0,0 0.48814096060385714,-0.3947093755466271 l 9.621662676339056 12.110939344588216" fill="#ff1702" stroke="none" /><path d="M 86.93701828274178 83.55741782278169 l -23.053901815614815 -29.018311692801678 a58.06136536104139,58.06136536104139 0 0,0 0.7878856633757617,-0.6149572575000887 l 22.550983597079625 29.41084733952499" fill="#8cff24" stroke="none" /><line stroke="#e1ed5e" stroke-width="0.3" x1="56.762969772571076" x2="54.21961505331055" y1="26.818313649435495" y2="22.513508569990535" /><path d="M 56.25429882871897 25.957352633546506 a86.0,86.0 0 0,1 42.265352541879196,-11.944610805530505" fill="none" id="id12" stroke="none" /><text fill="#e1ed5e" style="font-size:6.75px; font-family:Arial;" text-anchor="middle"><textPath startOffset="22.20632615414155" xlink:href="#id12">December</textPath></text><path d="M 90.91171255644093 81.06846463323043 l -15.948138052918734 -33.22108168981047 a57.850825987975014,57.850825987975014 0 0,0 0.9014309884562038,-0.42323393595011627 l 15.373928853162921 33.49068060840059" fill="#8fff24" stroke="none" /><path d="M 92.91201910852362 80.23233633223022 l -13.957914621093677 -38.92721579780595 a62.35397816823303,62.35397816823303 0 0,0 1.0134540412887123,-0.3535742153138974 l 13.285778575741679 39.161710866292054" fill="#53ff2b" stroke="none" /><path d="M 93.25333710446033 80.11325718540243 l -15.991965843659536 -47.13858047405034 a70.77739186270503,70.77739186270503 0 0,0 1.157099734445093,-0.381477590075447 l 15.178183286972033 47.40687178838502" fill="#38ff82" stroke="none" /><path d="M 95.33964822691252 79.52364482259891 l -10.271762433497004 -45.131411989277346 a67.28556418189247,67.28556418189247 0 0,0 1.1315422166795508,-0.2473113013260107 l 9.493377492663932 45.301536788699224" fill="#33ff4f" stroke="none" /><path d="M 96.04723909329186 79.375362276772 l -8.83002854174229 -46.07314837842402 a67.91166598564007,67.91166598564007 0 0,0 1.1499866551678237,-0.2101527107022096 l 8.035646765471572 46.21831657047697" fill="#34ff58" stroke="none" /><path d="M 96.75951476605007 79.25152402106235 l -7.243565542365375 -46.37976562369089 a67.94200572062343,67.94200572062343 0 0,0 1.157055656075673,-0.1705199266020884 l 6.444140905861054 46.497580034453954" fill="#34ff59" stroke="none" /><path d="M 97.47563105711357 79.15227682838746 l -5.3690546792816605 -44.340810784547415 a65.664686825054,65.664686825054 0 0,0 1.1232829481507687,-0.12621392734976467 l 4.605005027621174 44.42666066536778" fill="#30ff36" stroke="none" /><path d="M 98.19473922651362 79.07773832637324 l -5.415782320459142 -62.766785020880285 a84.0,84.0 0 0,0 1.4416392425506632,-0.11189895124615123 l 4.334552888546145 62.8507092343149" fill="#4dd2ff" stroke="none" /><path d="M 98.55514903715128 79.0497635885617 l -3.178992615241012 -46.095167288537304 a67.20465822193685,67.20465822193685 0 0,0 1.1547614848208134,-0.06965836628121311 l 2.3850690815805757 46.143058924198826" fill="#33ff4e" stroke="none" /><path d="M 98.91598698831166 79.02799685794201 l -2.3587296725492712 -45.63348001415962 a66.6943990426712,66.6943990426712 0 0,0 1.1470139829783519,-0.04939283491506003 l 1.5728748571815956 45.66732057559887" fill="#32ff46" stroke="none" /></svg>